<svg width="159" height="38" viewBox="0 0 159 38" fill="none" xmlns="http://www.w3.org/2000/svg">
<path d="M11.064 23.8514H7.992V36.5714H0.119995V3.30744H11.016C15.56 3.30744 18.968 4.13944 21.24 5.80344C23.544 7.46744 24.696 10.0114 24.696 13.4354C24.696 15.5794 24.184 17.3714 23.16 18.8114C22.136 20.2194 20.52 21.4194 18.312 22.4114L26.76 36.5714H17.88L11.064 23.8514ZM7.992 18.4274H11.304C13.064 18.4274 14.376 18.0274 15.24 17.2274C16.136 16.4274 16.584 15.1634 16.584 13.4354C16.584 11.8354 16.104 10.6674 15.144 9.93144C14.216 9.19544 12.776 8.82744 10.824 8.82744H7.992V18.4274Z" fill="#141414"/>
<path d="M39.9379 10.2674C43.8419 10.2674 46.8979 11.4674 49.1059 13.8674C51.3139 16.2354 52.4179 19.5634 52.4179 23.8514C52.4179 26.5714 51.9059 28.9554 50.8819 31.0034C49.8899 33.0194 48.4499 34.5874 46.5619 35.7074C44.7059 36.8274 42.4979 37.3874 39.9379 37.3874C36.0659 37.3874 33.0099 36.2034 30.7699 33.8354C28.5619 31.4354 27.4579 28.0914 27.4579 23.8034C27.4579 21.0834 27.9539 18.7154 28.9459 16.6994C29.9699 14.6514 31.4099 13.0674 33.2659 11.9474C35.1539 10.8274 37.3779 10.2674 39.9379 10.2674ZM39.9379 15.8354C38.4019 15.8354 37.2499 16.4914 36.4819 17.8034C35.7139 19.0834 35.3299 21.0834 35.3299 23.8034C35.3299 26.5874 35.6979 28.6194 36.4339 29.8994C37.2019 31.1794 38.3699 31.8194 39.9379 31.8194C41.4739 31.8194 42.6259 31.1794 43.3939 29.8994C44.1619 28.5874 44.5459 26.5714 44.5459 23.8514C44.5459 21.0674 44.1619 19.0354 43.3939 17.7554C42.6579 16.4754 41.5059 15.8354 39.9379 15.8354Z" fill="#141414"/>
<path d="M71.3771 10.2674C74.4171 10.2674 76.7531 11.4674 78.3851 13.8674C80.0171 16.2354 80.8331 19.5634 80.8331 23.8514C80.8331 26.4754 80.4171 28.8114 79.5851 30.8594C78.7851 32.9074 77.6171 34.5074 76.0811 35.6594C74.5771 36.8114 72.7851 37.3874 70.7051 37.3874C69.3291 37.3874 68.0651 37.0994 66.9131 36.5234C65.7931 35.9474 64.8331 35.1474 64.0331 34.1234L63.6491 36.5714H56.9291V0.955436L64.5131 0.139435V13.6754C65.2811 12.6194 66.2571 11.7874 67.4411 11.1794C68.6571 10.5714 69.9691 10.2674 71.3771 10.2674ZM68.4971 31.8674C71.4731 31.8674 72.9611 29.1954 72.9611 23.8514C72.9611 20.8114 72.6091 18.7154 71.9051 17.5634C71.2011 16.4114 70.1771 15.8354 68.8331 15.8354C67.1371 15.8354 65.6971 16.8274 64.5131 18.8114V29.4194C64.9931 30.1874 65.5691 30.7954 66.2411 31.2434C66.9451 31.6594 67.6971 31.8674 68.4971 31.8674Z" fill="#141414"/>
<path d="M94.5457 10.2674C96.3697 10.2674 98.0817 10.5394 99.6817 11.0834C101.282 11.6274 102.69 12.3954 103.906 13.3874L101.122 17.6594C99.0417 16.3474 96.9457 15.6914 94.8337 15.6914C93.8417 15.6914 93.0737 15.8674 92.5297 16.2194C92.0177 16.5394 91.7617 17.0034 91.7617 17.6114C91.7617 18.0914 91.8737 18.4914 92.0977 18.8114C92.3537 19.0994 92.8497 19.4034 93.5857 19.7234C94.3217 20.0434 95.4577 20.4274 96.9937 20.8754C99.6497 21.6434 101.618 22.6514 102.898 23.8994C104.21 25.1154 104.866 26.8114 104.866 28.9874C104.866 30.7154 104.37 32.2194 103.378 33.4994C102.386 34.7474 101.026 35.7074 99.2977 36.3794C97.5697 37.0514 95.6497 37.3874 93.5377 37.3874C91.3937 37.3874 89.3937 37.0514 87.5377 36.3794C85.7137 35.7074 84.1617 34.7794 82.8817 33.5954L86.5777 29.4674C88.7217 31.1314 90.9777 31.9634 93.3457 31.9634C94.4977 31.9634 95.3937 31.7554 96.0337 31.3394C96.7057 30.9234 97.0417 30.3314 97.0417 29.5634C97.0417 28.9554 96.9137 28.4754 96.6577 28.1234C96.4017 27.7714 95.9057 27.4514 95.1697 27.1634C94.4337 26.8434 93.2657 26.4594 91.6657 26.0114C89.1377 25.2754 87.2497 24.2514 86.0017 22.9394C84.7537 21.6274 84.1297 19.9954 84.1297 18.0434C84.1297 16.5714 84.5457 15.2594 85.3777 14.1074C86.2417 12.9234 87.4577 11.9954 89.0257 11.3234C90.6257 10.6194 92.4657 10.2674 94.5457 10.2674Z" fill="#141414"/>
<path d="M119.813 10.2674C123.717 10.2674 126.773 11.4674 128.981 13.8674C131.189 16.2354 132.293 19.5634 132.293 23.8514C132.293 26.5714 131.781 28.9554 130.757 31.0034C129.765 33.0194 128.325 34.5874 126.437 35.7074C124.581 36.8274 122.373 37.3874 119.813 37.3874C115.941 37.3874 112.885 36.2034 110.645 33.8354C108.437 31.4354 107.333 28.0914 107.333 23.8034C107.333 21.0834 107.829 18.7154 108.821 16.6994C109.845 14.6514 111.285 13.0674 113.141 11.9474C115.029 10.8274 117.253 10.2674 119.813 10.2674ZM119.813 15.8354C118.277 15.8354 117.125 16.4914 116.357 17.8034C115.589 19.0834 115.205 21.0834 115.205 23.8034C115.205 26.5874 115.573 28.6194 116.309 29.8994C117.077 31.1794 118.245 31.8194 119.813 31.8194C121.349 31.8194 122.501 31.1794 123.269 29.8994C124.037 28.5874 124.421 26.5714 124.421 23.8514C124.421 21.0674 124.037 19.0354 123.269 17.7554C122.533 16.4754 121.381 15.8354 119.813 15.8354Z" fill="#141414"/>
<path d="M151.732 10.2674C153.94 10.2674 155.668 10.9394 156.916 12.2834C158.164 13.6274 158.788 15.5154 158.788 17.9474V36.5714H151.204V19.2434C151.204 17.9634 150.996 17.0834 150.58 16.6034C150.196 16.0914 149.604 15.8354 148.804 15.8354C147.268 15.8354 145.796 16.9394 144.388 19.1474V36.5714H136.804V11.0834H143.428L143.956 14.1074C145.044 12.8274 146.212 11.8674 147.46 11.2274C148.74 10.5874 150.164 10.2674 151.732 10.2674Z" fill="#141414"/>
</svg>
